<svg xmlns="http://www.w3.org/2000/svg" viewBox="336 -270 736 664" width="736" height="664"><defs><clipPath id="a"><path d="M620.475-27.925h149.55v54h-149.55z"/></clipPath><clipPath id="b"><path d="M427.875 46.075h152.6v54h-152.6z"/></clipPath><clipPath id="c"><path d="M427.875-27.925h152.6v54h-152.6z"/></clipPath><clipPath id="d"><path d="M427.875-114h152.6v54h-152.6z"/></clipPath><clipPath id="e"><path d="M627.25 140h136v87h-136z"/></clipPath><clipPath id="f"><path d="M436.175 267h136v87h-136z"/></clipPath><clipPath id="g"><path d="M869.125-160.463h136v87h-136z"/></clipPath><clipPath id="h"><path d="M869.125 63.538h134v56h-134z"/></clipPath><clipPath id="i"><path d="M869.125-53.462h136v87h-136z"/></clipPath><clipPath id="j"><path d="M886.15 267H987v93H886.15z"/></clipPath><marker orient="auto" overflow="visible" id="k" stroke-miterlimit="10" viewBox="-9 -5 10 10" markerWidth="10" markerHeight="10" color="#616161"><path d="M-8 0h8m-4 4l-4-4 4-4" fill="none" stroke="currentColor"/></marker></defs><g fill="none"><title>Canvas 1</title><path fill="#fff" d="M336-270h736v664H336z"/><title>Layer 1</title><title>zone internal - blue</title><path fill="#e1f6fe" d="M386.875-204h423.15v578h-423.15z"/><text transform="translate(396.875 -189)" fill="#757575"><tspan font-family="Roboto" font-size="10" font-weight="400" x="0" y="9">Customer Project</tspan></text><title>zone internal - yellow</title><path fill="#e7f1ec" d="M407.875-158h382.15v278.075h-382.15z"/><path stroke="#fff" stroke-linecap="round" stroke-linejoin="round" stroke-width="2" d="M407.875-158h382.15v278.075h-382.15z"/><text transform="translate(417.875 -143)" fill="#757575"><tspan font-family="Roboto" font-size="10" font-weight="400" x="0" y="9">Kubernetes Engine</tspan></text><title>application system(s)</title><path fill="#fff" d="M620.475-27.925h149.55v54h-149.55z"/><path stroke="#dfdfdf" stroke-linecap="round" stroke-linejoin="round" stroke-width="2" clip-path="url(#a)" d="M620.475-27.925h149.55v54h-149.55z"/><text transform="translate(661.475 -7.925)" fill="#212121"><tspan font-family="Roboto" font-size="12" font-weight="400" x="0" y="11">Cloud SQL Proxy</tspan></text><path d="M654.475 6.075c0 1.1-.9 2-2 2h-14c-1.1 0-2-.9-2-2v-14c0-1.1.9-2 2-2h7v2h-7v14h14v-7h2z" fill="#616161"/><path d="M654.475-2.925h-2v-3.6l-9.85 9.85-1.4-1.4 9.85-9.85h-3.6v-2h7z" fill="#616161"/><title>scheduled tasks</title><path fill="#fff" d="M427.875 46.075h152.6v54h-152.6z"/><path stroke="#dfdfdf" stroke-linecap="round" stroke-linejoin="round" stroke-width="2" clip-path="url(#b)" d="M427.875 46.075h152.6v54h-152.6z"/><text transform="translate(468.875 66.075)" fill="#212121"><tspan font-family="Roboto" font-size="12" font-weight="400" x="0" y="11">Airflow Scheduler</tspan></text><path d="M451.975 68.575h1.35V73.3l4.05 2.385-.675 1.125-4.725-2.835zm-5.85-4.5h4.95v1.35h-4.95zm0 2.25h4.95v1.35h-4.95zm0 2.25h4.95v1.35h-4.95zm0 2.25h4.95v1.35h-4.95zm-2.25-6.75h1.35v1.35h-1.35zm0 2.25h1.35v1.35h-1.35zm0 2.25h1.35v1.35h-1.35zm0 2.25h1.35v1.35h-1.35z" fill="#616161"/><path d="M452.875 82.075c-4.95 0-9-4.05-9-9h1.8c-.045 4.005 3.195 7.245 7.2 7.29 4.005.045 7.245-3.195 7.29-7.2.045-4.005-3.195-7.245-7.2-7.29-.315 0-.675 0-.99.045v-1.8c.315-.045.585-.045.9-.045 4.95 0 9 4.05 9 9s-4.05 9-9 9z" fill="#616161"/><title>CDN interconnect</title><path fill="#fff" d="M427.875-27.925h152.6v54h-152.6z"/><path stroke="#dfdfdf" stroke-linecap="round" stroke-linejoin="round" stroke-width="2" clip-path="url(#c)" d="M427.875-27.925h152.6v54h-152.6z"/><text transform="translate(468.875 -7.925)" fill="#212121"><tspan font-family="Roboto" font-size="12" font-weight="400" x="0" y="11">Redis</tspan></text><g fill="#616161"><path d="M451.075-2.725h3.6v3.6h-3.6z"/><path d="M460.075-9.925h-14.4c-.99 0-1.8.81-1.8 1.8v14.4c0 .99.81 1.8 1.8 1.8h14.4c.99 0 1.8-.81 1.8-1.8v-14.4c0-.99-.81-1.8-1.8-1.8zm-8.1 1.8h1.8v1.8h-1.8zm4.5 3.6v7.2h-7.2v-7.2zm-10.8-3.6h4.5v1.8h-.9c-.99 0-1.8.81-1.8 1.8v.9h-1.8zm0 6.3h1.8v1.8h-1.8zm4.5 8.1h-4.5v-4.5h1.8v.9c0 .99.81 1.8 1.8 1.8h.9zm3.6 0h-1.8v-1.8h1.8zm6.3 0h-4.5v-1.8h.9c.99 0 1.8-.81 1.8-1.8v-.9h1.8zm0-6.3h-1.8v-1.8h1.8zm0-3.6h-1.8v-.9c0-.99-.81-1.8-1.8-1.8h-.9v-1.8h4.5z"/></g><title>dedicated game server</title><path fill="#fff" d="M427.875-114h152.6v54h-152.6z"/><path stroke="#dfdfdf" stroke-linecap="round" stroke-linejoin="round" stroke-width="2" clip-path="url(#d)" d="M427.875-114h152.6v54h-152.6z"/><text transform="translate(468.875 -94)" fill="#212121"><tspan font-family="Roboto" font-size="12" font-weight="400" x="0" y="11">Airflow Worker(s)</tspan></text><g fill="#616161"><path d="M461.505-86.235a.36.36 0 0 0 .37-.37v-.633a.416.416 0 0 0-.422-.422h-2.006v-2.111h2.006a.36.36 0 0 0 .37-.37v-.686c0-.211-.16-.37-.423-.37h-2.006v-1.9a.416.416 0 0 0-.422-.422h-1.9v-2.059a.36.36 0 0 0-.37-.37h-.633a.36.36 0 0 0-.37.37v2.006h-2.111v-2.006a.36.36 0 0 0-.37-.37h-.633c-.211 0-.37.16-.423.37v2.006h-2.111v-1.953c0-.211-.158-.37-.37-.422h-.686a.36.36 0 0 0-.37.37v2.005h-1.9a.416.416 0 0 0-.422.422v1.954h-2.058a.36.36 0 0 0-.37.369v.686c0 .211.158.37.37.37h2.005v2.111h-2.005a.36.36 0 0 0-.37.37v.686c0 .211.158.37.37.422h2.005v2.112h-2.005a.36.36 0 0 0-.37.37v.633c0 .21.158.369.37.369h2.005v1.9c0 .264.212.423.423.423h1.953v2.005c0 .212.158.37.37.37h.685a.36.36 0 0 0 .37-.37v-2.005h2.111v2.005c0 .212.159.37.37.37h.686a.36.36 0 0 0 .37-.37v-2.005h2.111v2.005c0 .212.158.37.37.37h.633a.36.36 0 0 0 .37-.37v-2.005h1.9a.416.416 0 0 0 .422-.423v-1.9h2.006a.36.36 0 0 0 .37-.37v-.633a.416.416 0 0 0-.423-.422h-2.006v-2.112h2.164zm-3.483 4.434h-10.24v-10.24h10.24v10.24z"/><path d="M450.368-89.032c0-.211.21-.37.422-.423h4.223c.264 0 .422.212.422.423v4.17a.416.416 0 0 1-.422.422h-4.223a.454.454 0 0 1-.422-.422z"/></g><title>Stroke-21</title><path stroke="#fff" stroke-linejoin="round" stroke-width="1.732" d="M431.576-53.642h148.298"/><title>Stroke-22</title><path stroke="#fff" stroke-linejoin="round" stroke-width="1.601" d="M437.186-48.975h137.078"/><title>Cloud Storage</title><path fill="#fff" d="M627.25 140h136v87h-136z"/><path stroke="#dfdfdf" stroke-linecap="round" stroke-linejoin="round" stroke-width="2" clip-path="url(#e)" d="M627.25 140h136v87h-136z"/><path fill="#dfdfdf" d="M643.25 188h104v1h-104z"/><text transform="translate(671.25 201)" fill="#757575"><tspan font-family="Roboto" font-size="10" font-weight="400" x="0" y="9">Cloud Storage</tspan></text><text transform="translate(643.25 152)" fill="#212121"><tspan font-family="Roboto" font-size="12" font-weight="400" x="9.947" y="11">DAGs, Logs, and</tspan> <tspan font-family="Roboto" font-size="12" font-weight="400" x="32.225" y="25">Plugins</tspan></text><title>Cloud Storage</title><title>Fill-1</title><path d="M663.046 206.08l-4.117-7.16c-.33-.572-.929-.92-1.544-.92h-8.235c-.66 0-1.236.387-1.544.92l-4.117 7.145a1.796 1.796 0 0 0 0 1.79l4.117 7.192c.33.572.928.953 1.544.953h8.234c.66 0 1.236-.416 1.544-.949l4.118-7.16a1.836 1.836 0 0 0 0-1.811" fill="#4285f4"/><title>Fill-4</title><path d="M656.63 204.895l-5.662.52-1.097 1.094.933.933-.923 1.64 6.918 6.918h.585c.66 0 1.236-.416 1.544-.949l2.87-4.99z" fill="#000" fill-opacity=".07"/><title>Fill-6</title><path d="M655.503 206.1a.389.389 0 0 1 0-.777.388.388 0 1 1 0 .776m1.004-1.248h-6.485a.19.19 0 0 0-.19.19v1.34c0 .105.086.19.19.19h6.485a.19.19 0 0 0 .19-.19v-1.34a.19.19 0 0 0-.19-.19" fill="#fff"/><title>Fill-8</title><path d="M655.503 208.676a.387.387 0 1 1-.001-.776.387.387 0 0 1 .001.776m1.004-1.248h-6.485a.19.19 0 0 0-.19.19v1.341c0 .104.086.19.19.19h6.485a.19.19 0 0 0 .19-.19v-1.34a.19.19 0 0 0-.19-.19" fill="#fff"/><g><title>Stackdriver</title><path fill="#fff" d="M436.175 267h136v87h-136z"/><path stroke="#dfdfdf" stroke-linecap="round" stroke-linejoin="round" stroke-width="2" clip-path="url(#f)" d="M436.175 267h136v87h-136z"/><path fill="#dfdfdf" d="M452.175 315h104v1h-104z"/><text transform="translate(480.175 328)" fill="#757575"><tspan font-family="Roboto" font-size="10" font-weight="400" x="0" y="9">Stackdriver</tspan></text><text transform="translate(452.175 286)" fill="#212121"><tspan font-family="Roboto" font-size="12" font-weight="400" x="38.89" y="11">Logs</tspan></text><title>Stackdriver</title><title>Fill-1</title><path d="M471.97 333.08l-4.116-7.16c-.33-.572-.929-.92-1.544-.92h-8.235c-.66 0-1.236.387-1.544.92l-4.117 7.145a1.796 1.796 0 0 0 0 1.79l4.117 7.192c.33.572.928.953 1.544.953h8.234c.66 0 1.236-.416 1.544-.949l4.118-7.16a1.836 1.836 0 0 0 0-1.811" fill="#4285f4"/><title>Fill-4</title><path d="M464.72 330.235l-.073.351-.65-.65-3.918.587-2.582 3.17.946.96-.819-.225 2.033 3.647 5.356 4.925h1.296c.66 0 1.236-.416 1.545-.949l3.163-5.5z" fill="#000" fill-opacity=".07"/><title>Fill-6</title><path d="M466.888 334.005l-2.168-3.77-2.168 3.77 2.168 3.77z" fill="#dde7f6"/><title>Fill-8</title><path d="M457.497 334.318l2.16 3.757h4.332l-2.16-3.757z" fill="#bcd0ec"/><g><title>Fill-10</title><path d="M461.801 333.692l2.195-3.756h-4.332l-2.167 3.756z" fill="#fff"/></g></g><g><title>zone external - yellow</title><path fill="#ece7f6" d="M850.025-204h173.1v343.538h-173.1z"/><text transform="translate(860.025 -189)" fill="#757575"><tspan font-family="Roboto" font-size="10" font-weight="400" x="0" y="9">Tenant Project</tspan></text></g><g><title>Cloud SQL</title><path fill="#fff" d="M869.125-160.463h136v87h-136z"/><path stroke="#dfdfdf" stroke-linecap="round" stroke-linejoin="round" stroke-width="2" clip-path="url(#g)" d="M869.125-160.463h136v87h-136z"/><path fill="#dfdfdf" d="M885.125-112.463h104v1h-104z"/><text transform="translate(913.125 -99.463)" fill="#757575"><tspan font-family="Roboto" font-size="10" font-weight="400" x="0" y="9">Cloud SQL</tspan></text><text transform="translate(885.125 -141.463)" fill="#212121"><tspan font-family="Roboto" font-size="12" font-weight="400" x="6.452" y="11">Airflow Database</tspan></text><title>Cloud SQL</title><title>Fill-1</title><path d="M904.92-94.383l-4.116-7.16c-.33-.571-.929-.92-1.544-.92h-8.235c-.66 0-1.236.387-1.544.92l-4.117 7.145a1.796 1.796 0 0 0 0 1.79l4.117 7.193c.33.571.928.953 1.544.953h8.234c.66 0 1.236-.416 1.544-.95l4.118-7.16a1.836 1.836 0 0 0 0-1.81" fill="#4285f4"/><title>Fill-4</title><path d="M898.266-96.3l-3.02-1.036-3.201 2.42 2.002 2.001-2.009.196 1.875 1.875-1.898.238 6.144 6.143h1.1c.66 0 1.236-.415 1.544-.948l3.05-5.303z" fill="#000" fill-opacity=".07"/><title>Fill-7</title><path d="M897.012-95.637h-.001l-1.869 1.078-1.868-1.078h-.001v-.001l1.87-1.078 1.868 1.079.001-.001zm-1.87-2.485l-3.13 1.807v1.398l3.13 1.807 3.13-1.807v-1.398z" fill="#fff"/><title>Fill-9</title><path d="M892.012-94.127v1.397l3.13 1.808 3.13-1.808v-1.397l-3.13 1.807z" fill="#fff"/><g><title>Fill-11</title><path d="M892.012-92.008v1.398l3.13 1.807 3.13-1.807v-1.398l-3.13 1.807z" fill="#fff"/></g></g><g><title>Identity-Aware Proxy</title><path fill="#fff" d="M869.125 63.538h134v56h-134z"/><path stroke="#dfdfdf" stroke-linecap="round" stroke-linejoin="round" stroke-width="2" clip-path="url(#h)" d="M869.125 63.538h134v56h-134z"/><text transform="translate(920.125 77.537)" fill="#212121"><tspan font-family="Roboto" font-size="12" font-weight="400" x="0" y="11">Identity-</tspan> <tspan font-family="Roboto" font-size="12" font-weight="400" x="0" y="25">Aware Proxy</tspan></text><title>Identity-Aware Proxy</title><title>Fill-1</title><path d="M912.791 90.251l-5.754-10.006c-.461-.799-1.297-1.286-2.158-1.286h-11.508c-.922 0-1.727.54-2.158 1.286l-5.754 9.986a2.51 2.51 0 0 0 0 2.501l5.754 10.052c.46.799 1.297 1.332 2.158 1.332h11.508c.922 0 1.727-.582 2.158-1.326l5.754-10.007a2.566 2.566 0 0 0 0-2.532" fill="#4285f4"/><title>Fill-4</title><path d="M911.76 94.574l-7.038-7.032-1.891.564.5.5-.41.249 2.379 2.379-1.281.322-2.716-2.717-3.504-.637-2.305 1.599-.202 3.603-2.537-2.604-1.348.16-.111 1.316 11.84 11.84h1.743c.922 0 1.727-.582 2.158-1.326z" fill="#000" fill-opacity=".07"/><title>Fill-7</title><path d="M898.549 94.676a3.054 3.054 0 1 1 0-6.109 3.054 3.054 0 0 1 0 6.11zm0-6.97a3.916 3.916 0 1 0 0 7.832 3.916 3.916 0 0 0 0-7.832z" fill="#fff"/><title>Fill-9</title><path d="M900.024 92.084a1.257 1.257 0 0 0-.222-.167 2.365 2.365 0 0 0-2.002-.228 1.97 1.97 0 0 0-.688.359.69.69 0 0 0-.284.506c-.01.256-.002.513-.002.777h3.446c0-.214-.009-.422.002-.628a.74.74 0 0 0-.25-.619" fill="#fff"/><title>Fill-11</title><path d="M898.546 91.176a.889.889 0 1 0-.006 0z" fill="#fff"/><title>Fill-13</title><path d="M905.403 90.556h-.798l.593.593h-1.7v.692h1.7l-.593.593h.798l.938-.939z" fill="#fff"/><title>Fill-15</title><path d="M902.92 88.855l.49.489.749-.75v.84l.563-.565v-1.327h-1.327l-.564.564h.838z" fill="#fff"/><g><title>Fill-17</title><path d="M904.159 94.48l-.75-.749-.489.49.75.749h-.84l.565.563h1.327v-1.328l-.563-.563z" fill="#fff"/></g><g><title>Fill-19</title><path d="M892.024 92.114a.577.577 0 1 1 0-1.154.577.577 0 0 1 0 1.154zm0-1.615a1.039 1.039 0 1 0 0 2.077 1.039 1.039 0 0 0 0-2.077z" fill="#fff"/></g></g><g><title>App Engine</title><path fill="#fff" d="M869.125-53.462h136v87h-136z"/><path stroke="#dfdfdf" stroke-linecap="round" stroke-linejoin="round" stroke-width="2" clip-path="url(#i)" d="M869.125-53.462h136v87h-136z"/><path fill="#dfdfdf" d="M885.125-5.463h104v1h-104z"/><text transform="translate(913.125 7.537)" fill="#757575"><tspan font-family="Roboto" font-size="10" font-weight="400" x="0" y="9">App Engine Flex</tspan></text><text transform="translate(882.125 -34.462)" fill="#212121"><tspan font-family="Roboto" font-size="12" font-weight="400" x=".006" y="11">Airflow Web Server(s)</tspan></text><title>App Engine</title><title>Fill-1</title><path d="M904.92 12.617l-4.116-7.16c-.33-.571-.929-.92-1.544-.92h-8.235c-.66 0-1.236.387-1.544.92l-4.117 7.145a1.796 1.796 0 0 0 0 1.79l4.117 7.193c.33.571.928.953 1.544.953h8.234c.66 0 1.236-.416 1.544-.95l4.118-7.16a1.836 1.836 0 0 0 0-1.81" fill="#4285f4"/><title>Fill-4</title><path d="M900.975 13.222l-.108-.033-5.462-5.461-1.12 1.638.939.94-2.39.87-.934 2.377-.917-.917-1.651 1.45 8.451 8.451h1.476c.66 0 1.236-.415 1.544-.948l3.118-5.422z" fill="#000" fill-opacity=".07"/><title>Fill-6</title><path d="M895.142 16.275a2.737 2.737 0 1 1 0-5.474 2.737 2.737 0 0 1 0 5.474m0-6.344a3.607 3.607 0 1 0 0 7.214 3.607 3.607 0 0 0 0-7.214" fill="#fff"/><title>Fill-8</title><path d="M900.8 13.11l-1.504-.472a4.25 4.25 0 0 1 .049 1.534h1.455c.134-.039.224-.122.224-.246v-.569c0-.124-.09-.209-.224-.246" fill="#fff"/><title>Fill-10</title><path d="M895.141 9.288c.302 0 .597.032.881.092l-.54-1.499c-.038-.134-.122-.224-.246-.224h-.225c-.124 0-.21.09-.247.224l-.468 1.492a4.27 4.27 0 0 1 .845-.085" fill="#fff"/><title>Fill-12</title><path d="M890.893 13.538c0-.31.033-.61.096-.9l-1.504.473c-.135.037-.224.122-.224.247v.568c0 .124.09.207.224.246h1.455a4.26 4.26 0 0 1-.048-.634" fill="#fff"/><g><title>Fill-14</title><path d="M895.726 14.122a.82.82 0 0 1-.584.242.825.825 0 1 1 .584-.242m.704-1.761l-.341.34a1.29 1.29 0 0 0-.919-.38c-.347 0-.673.136-.919.38a1.302 1.302 0 0 0 0 1.839l-.341.34c.323.323.768.523 1.26.523.983 0 1.783-.8 1.783-1.783 0-.492-.2-.936-.523-1.26" fill="#fff"/></g><g><title>Stroke-21</title><path stroke="#fff" stroke-linejoin="round" stroke-width="1.732" d="M873.179 36.821h127.892"/></g><g><title>Stroke-22</title><path stroke="#fff" stroke-linejoin="round" stroke-width="1.601" d="M878.017 41.487h118.216"/></g></g><g><title>laptop</title><path fill="#fff" d="M886.15 267H987v93H886.15z"/><path stroke="#dfdfdf" stroke-linecap="round" stroke-linejoin="round" stroke-width="2" clip-path="url(#j)" d="M886.15 267H987v93H886.15z"/><text transform="translate(890.15 323)" fill="#212121"><tspan font-family="Roboto" font-size="12" font-weight="400" x="20.354" y="11">Customer</tspan></text><path d="M942.575 304.5c.825 0 1.5-.675 1.5-1.5v-7.5c0-.825-.675-1.5-1.5-1.5h-12c-.825 0-1.5.675-1.5 1.5v7.5c0 .825.675 1.5 1.5 1.5h-3v1.5h18v-1.5zm-12-9h12v7.5h-12z" fill="#616161"/></g><g><title>path arrow - grey primary</title><path d="M580.475-87h22.584V73.037h-22.584" stroke="#616161" stroke-linecap="round" stroke-linejoin="round"/></g><g><title>path arrow - grey primary</title><path marker-start="url(#k)" stroke="#616161" stroke-linecap="round" stroke-linejoin="round" d="M611.325-2h-7.85"/></g><g><text transform="translate(945.5 186.938)" fill="#757575"><tspan font-family="Roboto" font-size="10" font-weight="400" x="0" y="9">HTTPS</tspan></text></g><g><text transform="translate(825.8 319.8)" fill="#757575"><tspan font-family="Roboto" font-size="10" font-weight="400" x="0" y="9">Cloud SDK,</tspan> <tspan font-family="Roboto" font-size="10" font-weight="400" x="0" y="21">API, and </tspan> <tspan font-family="Roboto" font-size="10" font-weight="400" x="0" y="33">Cloud </tspan> <tspan font-family="Roboto" font-size="10" font-weight="400" x="0" y="45">Console</tspan></text></g><g><path d="M503.175-38.975v2.2a.5.5 0 0 0 1 0v-2.2a.5.5 0 1 0-1 0zm1 10.2v-8h-1v8zm3.146-4.354l-4 4h.708l-4-4-.708.708 4 4 .354.353.354-.353 4-4zm-4.146-13.846v8h1v-8zm-3.146 4.354l4-4h-.708l4 4 .708-.708-4-4-.354-.353-.354.353-4 4z" fill="#616161"/></g><g><path d="M503.175 34.975v2.2a.5.5 0 0 0 1 0v-2.2a.5.5 0 1 0-1 0zm1 10.2v-8h-1v8zm3.146-4.354l-4 4h.708l-4-4-.708.708 4 4 .354.353.354-.353 4-4zm-4.146-13.846v8h1v-8zm-3.146 4.354l4-4h-.708l4 4 .708-.708-4-4-.354-.353-.354.353-4 4z" fill="#616161"/></g><g><path d="M503.175 121.908v136.017a.5.5 0 0 0 1 0V121.908a.5.5 0 1 0-1 0zm1 144.017v-8h-1v8zm3.146-4.354l-4 4h.708l-4-4-.708.708 4 4 .354.353.354-.353 4-4z" fill="#616161"/></g><g><path d="M694.25 121.667v9.433a.5.5 0 0 0 1 0v-9.433a.5.5 0 1 0-1 0zm1 17.433v-8h-1v8zm3.146-4.354l-4 4h.708l-4-4-.708.708 4 4 .354.353.354-.353 4-4z" fill="#616161"/></g><g><path d="M862.002-7.783H837.53a.5.5 0 0 0-.5.5V183.5l.5-.5h-64.38a.5.5 0 0 0 0 1h64.38a.5.5 0 0 0 .5-.5V-7.282l-.5.5h24.472a.5.5 0 0 0 0-1zM765.15 184h8v-1h-8zm4.354 3.146l-4-4v.708l4-4-.707-.708-4 4-.354.354.354.354 4 4zM870.002-7.783h-8v1h8zm-4.354-3.146l4 4v-.707l-4 4 .707.707 4-4 .354-.354-.354-.353-4-4z" fill="#616161"/></g><g><path d="M860.947-118.012h-37.336a.5.5 0 0 0-.5.5V-.925l.5-.5h-43.686a.5.5 0 0 0 0 1h43.686a.5.5 0 0 0 .5-.5v-116.587l-.5.5h37.336a.5.5 0 0 0 0-1zM771.925-.425h8v-1h-8zm4.354 3.146l-4-4v.708l4-4-.708-.708-4 4-.353.354.353.354 4 4zm92.668-120.733h-8v1h8zm-4.354-3.147l4 4v-.707l-4 4 .708.707 4-4 .353-.353-.353-.354-4-4z" fill="#616161"/></g><g><path d="M935.575 51.55v2.95a.5.5 0 0 0 1 0v-2.95a.5.5 0 0 0-1 0zm1 10.95v-8h-1v8zm3.146-4.354l-4 4h.708l-4-4-.708.708 4 4 .354.353.354-.353 4-4zm-4.146-14.596v8h1v-8zm-3.146 4.354l4-4h-.708l4 4 .708-.708-4-4-.354-.353-.354.353-4 4z" fill="#616161"/></g><g><path d="M935.575-64.6v2.2a.5.5 0 0 0 1 0v-2.2a.5.5 0 0 0-1 0zm1 10.2v-8h-1v8zm3.146-4.354l-4 4h.708l-4-4-.708.708 4 4 .354.353.354-.353 4-4zM935.575-72.6v8h1v-8zm-3.146 4.354l4-4h-.708l4 4 .708-.708-4-4-.354-.353-.354.353-4 4z" fill="#616161"/></g><g fill="#616161"><path d="M936.125 266.7c-.3 0-.5-.2-.5-.5v-2c0-.3.2-.5.5-.5s.5.2.5.5v2c0 .3-.3.5-.5.5zm0-6c-.3 0-.5-.2-.5-.5v-4c0-.3.2-.5.5-.5s.5.2.5.5v4c0 .3-.3.5-.5.5zm0-8c-.3 0-.5-.2-.5-.5v-4c0-.3.2-.5.5-.5s.5.2.5.5v4c0 .3-.3.5-.5.5zm0-8c-.3 0-.5-.2-.5-.5v-4c0-.3.2-.5.5-.5s.5.2.5.5v4c0 .3-.3.5-.5.5zm0-8c-.3 0-.5-.2-.5-.5v-4c0-.3.2-.5.5-.5s.5.2.5.5v4c0 .3-.3.5-.5.5zm0-8c-.3 0-.5-.2-.5-.5v-4c0-.3.2-.5.5-.5s.5.2.5.5v4c0 .3-.3.5-.5.5zm0-8c-.3 0-.5-.2-.5-.5v-4c0-.3.2-.5.5-.5s.5.2.5.5v4c0 .3-.3.5-.5.5zm0-8c-.3 0-.5-.2-.5-.5v-4c0-.3.2-.5.5-.5s.5.2.5.5v4c0 .3-.3.5-.5.5zm0-8c-.3 0-.5-.2-.5-.5v-4c0-.3.2-.5.5-.5s.5.2.5.5v4c0 .3-.3.5-.5.5zm0-8c-.3 0-.5-.2-.5-.5v-4c0-.3.2-.5.5-.5s.5.2.5.5v4c0 .3-.3.5-.5.5zm0-8c-.3 0-.5-.2-.5-.5v-4c0-.3.2-.5.5-.5s.5.2.5.5v4c0 .3-.3.5-.5.5zm0-8c-.3 0-.5-.2-.5-.5v-4c0-.3.2-.5.5-.5s.5.2.5.5v4c0 .3-.3.5-.5.5zm0-8c-.3 0-.5-.2-.5-.5v-4c0-.3.2-.5.5-.5s.5.2.5.5v4c0 .3-.3.5-.5.5zm0-8c-.3 0-.5-.2-.5-.5v-4c0-.3.2-.5.5-.5s.5.2.5.5v4c0 .3-.3.5-.5.5zm0-8c-.3 0-.5-.2-.5-.5v-4c0-.3.2-.5.5-.5s.5.2.5.5v4c0 .3-.3.5-.5.5zm0-8c-.3 0-.5-.2-.5-.5v-4c0-.3.2-.5.5-.5s.5.2.5.5v4c0 .3-.3.5-.5.5zm0-8c-.3 0-.5-.2-.5-.5v-4c0-.3.2-.5.5-.5s.5.2.5.5v4c0 .3-.3.5-.5.5zm0-8c-.3 0-.5-.2-.5-.5v-4c0-.3.2-.5.5-.5s.5.2.5.5v4c0 .3-.3.5-.5.5z"/><path d="M936.625 128.2h-1v-6.8l-3.2 3.2-.7-.7 4.4-4.4 4.3 4.4-.7.7-3.1-3.2z"/></g><g fill="#616161"><path d="M874.394 314.71h-4c-.3 0-.5-.2-.5-.5s.2-.5.5-.5h4c.3 0 .5.2.5.5s-.2.5-.5.5zm-8 0h-4c-.3 0-.5-.2-.5-.5s.2-.5.5-.5h4c.3 0 .5.2.5.5s-.2.5-.5.5zm-8 0h-4c-.3 0-.5-.2-.5-.5s.2-.5.5-.5h4c.3 0 .5.2.5.5s-.2.5-.5.5zm-8 0h-4c-.3 0-.5-.2-.5-.5s.2-.5.5-.5h4c.3 0 .5.2.5.5s-.2.5-.5.5zm-8 0h-4c-.3 0-.5-.2-.5-.5s.2-.5.5-.5h4c.3 0 .5.2.5.5s-.2.5-.5.5zm-8 0h-4c-.3 0-.5-.2-.5-.5s.2-.5.5-.5h4c.3 0 .5.2.5.5s-.2.5-.5.5zm-8 0h-2.5c-.3 0-.5-.2-.5-.5v-1.5c0-.3.2-.5.5-.5s.5.2.5.5v1h2c.3 0 .5.2.5.5s-.2.5-.5.5zm-2.5-5.5c-.3 0-.5-.2-.5-.5v-4c0-.3.2-.5.5-.5s.5.2.5.5v4c0 .3-.2.5-.5.5zm-.1-8c-.3 0-.5-.2-.5-.5v-4c0-.3.2-.5.5-.5s.5.2.5.5v4c0 .3-.2.5-.5.5zm-.1-8c-.3 0-.5-.2-.5-.5v-4c0-.3.2-.5.5-.5s.5.2.5.5v4c0 .3-.2.5-.5.5zm-.1-8c-.3 0-.5-.2-.5-.5v-4c0-.3.2-.5.5-.5s.5.2.5.5v4c0 .3-.2.5-.5.5zm0-8c-.3 0-.5-.2-.5-.5v-4c0-.3.2-.5.5-.5s.5.2.5.5v4c0 .3-.3.5-.5.5zm-.1-8c-.3 0-.5-.2-.5-.5v-4c0-.3.2-.5.5-.5s.5.2.5.5v4c0 .3-.2.5-.5.5zm-.1-8c-.3 0-.5-.2-.5-.5v-4c0-.3.2-.5.5-.5s.5.2.5.5v4c0 .3-.2.5-.5.5zm57.6 57.4l-.7-.7 3.2-3.2h-6.8v-1h6.8l-3.2-3.1.7-.7 4.4 4.3z"/><path d="M822.894 256.71l-.1-6.8-3.1 3.2-.7-.7 4.3-4.4 4.4 4.3-.7.7-3.2-3.1.1 6.8z"/></g><g><title>zone external - grey</title><path d="M364.875-250h678.25v497h-678.25z" stroke="#616161" stroke-linecap="round" stroke-linejoin="round" stroke-dasharray="4.0,4.0"/><text transform="translate(374.875 -235)" fill="#757575"><tspan font-family="Roboto" font-size="10" font-weight="400" x="0" y="9">Composer Environment</tspan></text></g></g></svg>